<?xml version="1.0" encoding="utf-8" standalone="no"?>
<!DOCTYPE svg PUBLIC "-//W3C//DTD SVG 1.1//EN"
  "http://www.w3.org/Graphics/SVG/1.1/DTD/svg11.dtd">
<svg xmlns:xlink="http://www.w3.org/1999/xlink" width="419.80875pt" height="276.119062pt" viewBox="0 0 419.80875 276.119062" xmlns="http://www.w3.org/2000/svg" version="1.1">
 <metadata>
  <rdf:RDF xmlns:dc="http://purl.org/dc/elements/1.1/" xmlns:cc="http://creativecommons.org/ns#" xmlns:rdf="http://www.w3.org/1999/02/22-rdf-syntax-ns#">
   <cc:Work>
    <dc:type rdf:resource="http://purl.org/dc/dcmitype/StillImage"/>
    <dc:date>2026-04-06T22:47:29.910737</dc:date>
    <dc:format>image/svg+xml</dc:format>
    <dc:creator>
     <cc:Agent>
      <dc:title>Matplotlib v3.10.8, https://matplotlib.org/</dc:title>
     </cc:Agent>
    </dc:creator>
   </cc:Work>
  </rdf:RDF>
 </metadata>
 <defs>
  <style type="text/css">*{stroke-linejoin: round; stroke-linecap: butt}</style>
 </defs>
 <g id="figure_1">
  <g id="patch_1">
   <path d="M 0 276.119062
L 419.80875 276.119062
L 419.80875 0
L 0 0
z
" style="fill: #ffffff"/>
  </g>
  <g id="axes_1">
   <g id="patch_2">
    <path d="M 52.71875 234.357812
L 412.60875 234.357812
L 412.60875 23.837813
L 52.71875 23.837813
z
" style="fill: #ffffff"/>
   </g>
   <g id="patch_3">
    <path d="M 69.077386 234.357812
L 79.983144 234.357812
L 79.983144 220.349412
L 69.077386 220.349412
z
" clip-path="url(#p42c948fbaf)" style="fill: #e26d5c; opacity: 0.85; stroke: #000000; stroke-width: 0.8; stroke-linejoin: miter"/>
   </g>
   <g id="patch_4">
    <path d="M 79.983144 234.357812
L 90.888902 234.357812
L 90.888902 165.191333
L 79.983144 165.191333
z
" clip-path="url(#p42c948fbaf)" style="fill: #e26d5c; opacity: 0.85; stroke: #000000; stroke-width: 0.8; stroke-linejoin: miter"/>
   </g>
   <g id="patch_5">
    <path d="M 90.888902 234.357812
L 101.794659 234.357812
L 101.794659 37.364675
L 90.888902 37.364675
z
" clip-path="url(#p42c948fbaf)" style="fill: #e26d5c; opacity: 0.85; stroke: #000000; stroke-width: 0.8; stroke-linejoin: miter"/>
   </g>
   <g id="patch_6">
    <path d="M 101.794659 234.357812
L 112.700417 234.357812
L 112.700417 33.862574
L 101.794659 33.862574
z
" clip-path="url(#p42c948fbaf)" style="fill: #e26d5c; opacity: 0.85; stroke: #000000; stroke-width: 0.8; stroke-linejoin: miter"/>
   </g>
   <g id="patch_7">
    <path d="M 112.700417 234.357812
L 123.606174 234.357812
L 123.606174 76.763302
L 112.700417 76.763302
z
" clip-path="url(#p42c948fbaf)" style="fill: #e26d5c; opacity: 0.85; stroke: #000000; stroke-width: 0.8; stroke-linejoin: miter"/>
   </g>
   <g id="patch_8">
    <path d="M 123.606174 234.357812
L 134.511932 234.357812
L 134.511932 47.870975
L 123.606174 47.870975
z
" clip-path="url(#p42c948fbaf)" style="fill: #e26d5c; opacity: 0.85; stroke: #000000; stroke-width: 0.8; stroke-linejoin: miter"/>
   </g>
   <g id="patch_9">
    <path d="M 134.511932 234.357812
L 145.417689 234.357812
L 145.417689 40.866775
L 134.511932 40.866775
z
" clip-path="url(#p42c948fbaf)" style="fill: #e26d5c; opacity: 0.85; stroke: #000000; stroke-width: 0.8; stroke-linejoin: miter"/>
   </g>
   <g id="patch_10">
    <path d="M 145.417689 234.357812
L 156.323447 234.357812
L 156.323447 46.99545
L 145.417689 46.99545
z
" clip-path="url(#p42c948fbaf)" style="fill: #e26d5c; opacity: 0.85; stroke: #000000; stroke-width: 0.8; stroke-linejoin: miter"/>
   </g>
   <g id="patch_11">
    <path d="M 156.323447 234.357812
L 167.229205 234.357812
L 167.229205 68.008052
L 156.323447 68.008052
z
" clip-path="url(#p42c948fbaf)" style="fill: #e26d5c; opacity: 0.85; stroke: #000000; stroke-width: 0.8; stroke-linejoin: miter"/>
   </g>
   <g id="patch_12">
    <path d="M 167.229205 234.357812
L 178.134962 234.357812
L 178.134962 91.647228
L 167.229205 91.647228
z
" clip-path="url(#p42c948fbaf)" style="fill: #e26d5c; opacity: 0.85; stroke: #000000; stroke-width: 0.8; stroke-linejoin: miter"/>
   </g>
   <g id="patch_13">
    <path d="M 178.134962 234.357812
L 189.04072 234.357812
L 189.04072 83.767503
L 178.134962 83.767503
z
" clip-path="url(#p42c948fbaf)" style="fill: #e26d5c; opacity: 0.85; stroke: #000000; stroke-width: 0.8; stroke-linejoin: miter"/>
   </g>
   <g id="patch_14">
    <path d="M 189.04072 234.357812
L 199.946477 234.357812
L 199.946477 149.431882
L 189.04072 149.431882
z
" clip-path="url(#p42c948fbaf)" style="fill: #e26d5c; opacity: 0.85; stroke: #000000; stroke-width: 0.8; stroke-linejoin: miter"/>
   </g>
   <g id="patch_15">
    <path d="M 199.946477 234.357812
L 210.852235 234.357812
L 210.852235 164.315808
L 199.946477 164.315808
z
" clip-path="url(#p42c948fbaf)" style="fill: #e26d5c; opacity: 0.85; stroke: #000000; stroke-width: 0.8; stroke-linejoin: miter"/>
   </g>
   <g id="patch_16">
    <path d="M 210.852235 234.357812
L 221.757992 234.357812
L 221.757992 183.577359
L 210.852235 183.577359
z
" clip-path="url(#p42c948fbaf)" style="fill: #e26d5c; opacity: 0.85; stroke: #000000; stroke-width: 0.8; stroke-linejoin: miter"/>
   </g>
   <g id="patch_17">
    <path d="M 221.757992 234.357812
L 232.66375 234.357812
L 232.66375 197.58576
L 221.757992 197.58576
z
" clip-path="url(#p42c948fbaf)" style="fill: #e26d5c; opacity: 0.85; stroke: #000000; stroke-width: 0.8; stroke-linejoin: miter"/>
   </g>
   <g id="patch_18">
    <path d="M 232.66375 234.357812
L 243.569508 234.357812
L 243.569508 214.220736
L 232.66375 214.220736
z
" clip-path="url(#p42c948fbaf)" style="fill: #e26d5c; opacity: 0.85; stroke: #000000; stroke-width: 0.8; stroke-linejoin: miter"/>
   </g>
   <g id="patch_19">
    <path d="M 243.569508 234.357812
L 254.475265 234.357812
L 254.475265 217.722836
L 243.569508 217.722836
z
" clip-path="url(#p42c948fbaf)" style="fill: #e26d5c; opacity: 0.85; stroke: #000000; stroke-width: 0.8; stroke-linejoin: miter"/>
   </g>
   <g id="patch_20">
    <path d="M 254.475265 234.357812
L 265.381023 234.357812
L 265.381023 221.224937
L 254.475265 221.224937
z
" clip-path="url(#p42c948fbaf)" style="fill: #e26d5c; opacity: 0.85; stroke: #000000; stroke-width: 0.8; stroke-linejoin: miter"/>
   </g>
   <g id="patch_21">
    <path d="M 265.381023 234.357812
L 276.28678 234.357812
L 276.28678 222.100462
L 265.381023 222.100462
z
" clip-path="url(#p42c948fbaf)" style="fill: #e26d5c; opacity: 0.85; stroke: #000000; stroke-width: 0.8; stroke-linejoin: miter"/>
   </g>
   <g id="patch_22">
    <path d="M 276.28678 234.357812
L 287.192538 234.357812
L 287.192538 226.478087
L 276.28678 226.478087
z
" clip-path="url(#p42c948fbaf)" style="fill: #e26d5c; opacity: 0.85; stroke: #000000; stroke-width: 0.8; stroke-linejoin: miter"/>
   </g>
   <g id="patch_23">
    <path d="M 287.192538 234.357812
L 298.098295 234.357812
L 298.098295 223.851512
L 287.192538 223.851512
z
" clip-path="url(#p42c948fbaf)" style="fill: #e26d5c; opacity: 0.85; stroke: #000000; stroke-width: 0.8; stroke-linejoin: miter"/>
   </g>
   <g id="patch_24">
    <path d="M 298.098295 234.357812
L 309.004053 234.357812
L 309.004053 230.855712
L 298.098295 230.855712
z
" clip-path="url(#p42c948fbaf)" style="fill: #e26d5c; opacity: 0.85; stroke: #000000; stroke-width: 0.8; stroke-linejoin: miter"/>
   </g>
   <g id="patch_25">
    <path d="M 309.004053 234.357812
L 319.909811 234.357812
L 319.909811 233.482287
L 309.004053 233.482287
z
" clip-path="url(#p42c948fbaf)" style="fill: #e26d5c; opacity: 0.85; stroke: #000000; stroke-width: 0.8; stroke-linejoin: miter"/>
   </g>
   <g id="patch_26">
    <path d="M 319.909811 234.357812
L 330.815568 234.357812
L 330.815568 232.606762
L 319.909811 232.606762
z
" clip-path="url(#p42c948fbaf)" style="fill: #e26d5c; opacity: 0.85; stroke: #000000; stroke-width: 0.8; stroke-linejoin: miter"/>
   </g>
   <g id="patch_27">
    <path d="M 330.815568 234.357812
L 341.721326 234.357812
L 341.721326 233.482287
L 330.815568 233.482287
z
" clip-path="url(#p42c948fbaf)" style="fill: #e26d5c; opacity: 0.85; stroke: #000000; stroke-width: 0.8; stroke-linejoin: miter"/>
   </g>
   <g id="patch_28">
    <path d="M 341.721326 234.357812
L 352.627083 234.357812
L 352.627083 232.606762
L 341.721326 232.606762
z
" clip-path="url(#p42c948fbaf)" style="fill: #e26d5c; opacity: 0.85; stroke: #000000; stroke-width: 0.8; stroke-linejoin: miter"/>
   </g>
   <g id="patch_29">
    <path d="M 352.627083 234.357812
L 363.532841 234.357812
L 363.532841 231.731237
L 352.627083 231.731237
z
" clip-path="url(#p42c948fbaf)" style="fill: #e26d5c; opacity: 0.85; stroke: #000000; stroke-width: 0.8; stroke-linejoin: miter"/>
   </g>
   <g id="patch_30">
    <path d="M 363.532841 234.357812
L 374.438598 234.357812
L 374.438598 232.606762
L 363.532841 232.606762
z
" clip-path="url(#p42c948fbaf)" style="fill: #e26d5c; opacity: 0.85; stroke: #000000; stroke-width: 0.8; stroke-linejoin: miter"/>
   </g>
   <g id="patch_31">
    <path d="M 374.438598 234.357812
L 385.344356 234.357812
L 385.344356 232.606762
L 374.438598 232.606762
z
" clip-path="url(#p42c948fbaf)" style="fill: #e26d5c; opacity: 0.85; stroke: #000000; stroke-width: 0.8; stroke-linejoin: miter"/>
   </g>
   <g id="patch_32">
    <path d="M 385.344356 234.357812
L 396.250114 234.357812
L 396.250114 233.482287
L 385.344356 233.482287
z
" clip-path="url(#p42c948fbaf)" style="fill: #e26d5c; opacity: 0.85; stroke: #000000; stroke-width: 0.8; stroke-linejoin: miter"/>
   </g>
   <g id="matplotlib.axis_1">
    <g id="xtick_1">
     <g id="line2d_1">
      <defs>
       <path id="me559c7cc41" d="M 0 0
L 0 3.5
" style="stroke: #000000; stroke-width: 0.8"/>
      </defs>
      <g>
       <use xlink:href="#me559c7cc41" x="67.747416" y="234.357812" style="stroke: #000000; stroke-width: 0.8"/>
      </g>
     </g>
     <g id="text_1">
      <!-- 0 -->
      <g transform="translate(63.929916 250.475937) scale(0.12 -0.12)">
       <defs>
        <path id="DejaVuSerif-30" d="M 2034 219
Q 2513 219 2750 744
Q 2988 1269 2988 2328
Q 2988 3391 2750 3916
Q 2513 4441 2034 4441
Q 1556 4441 1318 3916
Q 1081 3391 1081 2328
Q 1081 1269 1318 744
Q 1556 219 2034 219
z
M 2034 -91
Q 1275 -91 848 546
Q 422 1184 422 2328
Q 422 3475 848 4112
Q 1275 4750 2034 4750
Q 2797 4750 3222 4112
Q 3647 3475 3647 2328
Q 3647 1184 3222 546
Q 2797 -91 2034 -91
z
" transform="scale(0.015625)"/>
       </defs>
       <use xlink:href="#DejaVuSerif-30"/>
      </g>
     </g>
    </g>
    <g id="xtick_2">
     <g id="line2d_2">
      <g>
       <use xlink:href="#me559c7cc41" x="134.245938" y="234.357812" style="stroke: #000000; stroke-width: 0.8"/>
      </g>
     </g>
     <g id="text_2">
      <!-- 50 -->
      <g transform="translate(126.610938 250.475937) scale(0.12 -0.12)">
       <defs>
        <path id="DejaVuSerif-35" d="M 3219 4666
L 3219 4153
L 1081 4153
L 1081 2816
Q 1244 2928 1461 2984
Q 1678 3041 1947 3041
Q 2703 3041 3140 2622
Q 3578 2203 3578 1478
Q 3578 738 3136 323
Q 2694 -91 1894 -91
Q 1572 -91 1234 -12
Q 897 66 544 225
L 544 1131
L 897 1131
Q 925 688 1179 453
Q 1434 219 1894 219
Q 2388 219 2653 544
Q 2919 869 2919 1478
Q 2919 2084 2655 2407
Q 2391 2731 1894 2731
Q 1613 2731 1398 2631
Q 1184 2531 1019 2322
L 750 2322
L 750 4666
L 3219 4666
z
" transform="scale(0.015625)"/>
       </defs>
       <use xlink:href="#DejaVuSerif-35"/>
       <use xlink:href="#DejaVuSerif-30" transform="translate(63.623047 0)"/>
      </g>
     </g>
    </g>
    <g id="xtick_3">
     <g id="line2d_3">
      <g>
       <use xlink:href="#me559c7cc41" x="200.74446" y="234.357812" style="stroke: #000000; stroke-width: 0.8"/>
      </g>
     </g>
     <g id="text_3">
      <!-- 100 -->
      <g transform="translate(189.29196 250.475937) scale(0.12 -0.12)">
       <defs>
        <path id="DejaVuSerif-31" d="M 909 0
L 909 331
L 1722 331
L 1722 4213
L 781 3603
L 781 4013
L 1919 4750
L 2350 4750
L 2350 331
L 3163 331
L 3163 0
L 909 0
z
" transform="scale(0.015625)"/>
       </defs>
       <use xlink:href="#DejaVuSerif-31"/>
       <use xlink:href="#DejaVuSerif-30" transform="translate(63.623047 0)"/>
       <use xlink:href="#DejaVuSerif-30" transform="translate(127.246094 0)"/>
      </g>
     </g>
    </g>
    <g id="xtick_4">
     <g id="line2d_4">
      <g>
       <use xlink:href="#me559c7cc41" x="267.242981" y="234.357812" style="stroke: #000000; stroke-width: 0.8"/>
      </g>
     </g>
     <g id="text_4">
      <!-- 150 -->
      <g transform="translate(255.790481 250.475937) scale(0.12 -0.12)">
       <use xlink:href="#DejaVuSerif-31"/>
       <use xlink:href="#DejaVuSerif-35" transform="translate(63.623047 0)"/>
       <use xlink:href="#DejaVuSerif-30" transform="translate(127.246094 0)"/>
      </g>
     </g>
    </g>
    <g id="xtick_5">
     <g id="line2d_5">
      <g>
       <use xlink:href="#me559c7cc41" x="333.741503" y="234.357812" style="stroke: #000000; stroke-width: 0.8"/>
      </g>
     </g>
     <g id="text_5">
      <!-- 200 -->
      <g transform="translate(322.289003 250.475937) scale(0.12 -0.12)">
       <defs>
        <path id="DejaVuSerif-32" d="M 819 3553
L 469 3553
L 469 4384
Q 803 4563 1142 4656
Q 1481 4750 1806 4750
Q 2534 4750 2956 4397
Q 3378 4044 3378 3438
Q 3378 2753 2422 1800
Q 2347 1728 2309 1691
L 1131 513
L 3078 513
L 3078 1088
L 3444 1088
L 3444 0
L 434 0
L 434 341
L 1850 1753
Q 2319 2222 2519 2614
Q 2719 3006 2719 3438
Q 2719 3909 2473 4175
Q 2228 4441 1797 4441
Q 1350 4441 1106 4219
Q 863 3997 819 3553
z
" transform="scale(0.015625)"/>
       </defs>
       <use xlink:href="#DejaVuSerif-32"/>
       <use xlink:href="#DejaVuSerif-30" transform="translate(63.623047 0)"/>
       <use xlink:href="#DejaVuSerif-30" transform="translate(127.246094 0)"/>
      </g>
     </g>
    </g>
    <g id="xtick_6">
     <g id="line2d_6">
      <g>
       <use xlink:href="#me559c7cc41" x="400.240025" y="234.357812" style="stroke: #000000; stroke-width: 0.8"/>
      </g>
     </g>
     <g id="text_6">
      <!-- 250 -->
      <g transform="translate(388.787525 250.475937) scale(0.12 -0.12)">
       <use xlink:href="#DejaVuSerif-32"/>
       <use xlink:href="#DejaVuSerif-35" transform="translate(63.623047 0)"/>
       <use xlink:href="#DejaVuSerif-30" transform="translate(127.246094 0)"/>
      </g>
     </g>
    </g>
    <g id="text_7">
     <!-- Assistant Token Count (MAX_NEW_TOKENS) -->
     <g transform="translate(94.276562 266.089687) scale(0.12 -0.12)">
      <defs>
       <path id="DejaVuSerif-41" d="M 1281 1691
L 2994 1691
L 2138 3909
L 1281 1691
z
M -38 0
L -38 331
L 372 331
L 2034 4666
L 2559 4666
L 4225 331
L 4684 331
L 4684 0
L 2988 0
L 2988 331
L 3506 331
L 3116 1356
L 1153 1356
L 763 331
L 1275 331
L 1275 0
L -38 0
z
" transform="scale(0.015625)"/>
       <path id="DejaVuSerif-73" d="M 359 184
L 359 959
L 691 959
Q 703 588 923 403
Q 1144 219 1575 219
Q 1963 219 2166 364
Q 2369 509 2369 788
Q 2369 1006 2220 1140
Q 2072 1275 1594 1428
L 1178 1569
Q 750 1706 558 1912
Q 366 2119 366 2438
Q 366 2894 700 3153
Q 1034 3413 1625 3413
Q 1888 3413 2178 3344
Q 2469 3275 2778 3144
L 2778 2419
L 2447 2419
Q 2434 2741 2221 2922
Q 2009 3103 1644 3103
Q 1281 3103 1095 2975
Q 909 2847 909 2591
Q 909 2381 1050 2254
Q 1191 2128 1613 1997
L 2069 1856
Q 2541 1709 2748 1489
Q 2956 1269 2956 922
Q 2956 450 2595 179
Q 2234 -91 1600 -91
Q 1278 -91 972 -22
Q 666 47 359 184
z
" transform="scale(0.015625)"/>
       <path id="DejaVuSerif-69" d="M 622 4353
Q 622 4497 726 4603
Q 831 4709 978 4709
Q 1122 4709 1226 4603
Q 1331 4497 1331 4353
Q 1331 4206 1228 4103
Q 1125 4000 978 4000
Q 831 4000 726 4103
Q 622 4206 622 4353
z
M 1356 331
L 1900 331
L 1900 0
L 231 0
L 231 331
L 781 331
L 781 2988
L 231 2988
L 231 3322
L 1356 3322
L 1356 331
z
" transform="scale(0.015625)"/>
       <path id="DejaVuSerif-74" d="M 691 2988
L 184 2988
L 184 3322
L 691 3322
L 691 4353
L 1269 4353
L 1269 3322
L 2350 3322
L 2350 2988
L 1269 2988
L 1269 878
Q 1269 456 1350 337
Q 1431 219 1650 219
Q 1875 219 1978 351
Q 2081 484 2088 781
L 2522 781
Q 2497 328 2275 118
Q 2053 -91 1600 -91
Q 1103 -91 897 129
Q 691 350 691 878
L 691 2988
z
" transform="scale(0.015625)"/>
       <path id="DejaVuSerif-61" d="M 2547 1044
L 2547 1747
L 1806 1747
Q 1378 1747 1168 1562
Q 959 1378 959 997
Q 959 650 1171 447
Q 1384 244 1747 244
Q 2106 244 2326 466
Q 2547 688 2547 1044
z
M 3122 2075
L 3122 331
L 3634 331
L 3634 0
L 2547 0
L 2547 359
Q 2356 128 2106 18
Q 1856 -91 1522 -91
Q 969 -91 644 203
Q 319 497 319 997
Q 319 1513 691 1797
Q 1063 2081 1741 2081
L 2547 2081
L 2547 2309
Q 2547 2688 2317 2895
Q 2088 3103 1672 3103
Q 1328 3103 1125 2947
Q 922 2791 872 2484
L 575 2484
L 575 3156
Q 875 3284 1158 3348
Q 1441 3413 1709 3413
Q 2400 3413 2761 3070
Q 3122 2728 3122 2075
z
" transform="scale(0.015625)"/>
       <path id="DejaVuSerif-6e" d="M 263 0
L 263 331
L 781 331
L 781 2988
L 231 2988
L 231 3322
L 1356 3322
L 1356 2731
Q 1516 3069 1770 3241
Q 2025 3413 2363 3413
Q 2913 3413 3172 3097
Q 3431 2781 3431 2113
L 3431 331
L 3944 331
L 3944 0
L 2356 0
L 2356 331
L 2853 331
L 2853 1931
Q 2853 2541 2703 2767
Q 2553 2994 2175 2994
Q 1775 2994 1565 2701
Q 1356 2409 1356 1850
L 1356 331
L 1856 331
L 1856 0
L 263 0
z
" transform="scale(0.015625)"/>
       <path id="DejaVuSerif-20" transform="scale(0.015625)"/>
       <path id="DejaVuSerif-54" d="M 1222 0
L 1222 331
L 1819 331
L 1819 4294
L 447 4294
L 447 3566
L 63 3566
L 63 4666
L 4206 4666
L 4206 3566
L 3822 3566
L 3822 4294
L 2450 4294
L 2450 331
L 3047 331
L 3047 0
L 1222 0
z
" transform="scale(0.015625)"/>
       <path id="DejaVuSerif-6f" d="M 1925 219
Q 2388 219 2623 584
Q 2859 950 2859 1663
Q 2859 2375 2623 2739
Q 2388 3103 1925 3103
Q 1463 3103 1227 2739
Q 991 2375 991 1663
Q 991 950 1228 584
Q 1466 219 1925 219
z
M 1925 -91
Q 1200 -91 759 389
Q 319 869 319 1663
Q 319 2456 758 2934
Q 1197 3413 1925 3413
Q 2653 3413 3092 2934
Q 3531 2456 3531 1663
Q 3531 869 3092 389
Q 2653 -91 1925 -91
z
" transform="scale(0.015625)"/>
       <path id="DejaVuSerif-6b" d="M 1831 0
L 219 0
L 219 331
L 738 331
L 738 4531
L 184 4531
L 184 4863
L 1313 4863
L 1313 1697
L 2713 2988
L 2234 2988
L 2234 3322
L 3738 3322
L 3738 2988
L 3169 2988
L 2181 2075
L 3444 331
L 3922 331
L 3922 0
L 2284 0
L 2284 331
L 2759 331
L 1766 1697
L 1313 1275
L 1313 331
L 1831 331
L 1831 0
z
" transform="scale(0.015625)"/>
       <path id="DejaVuSerif-65" d="M 3469 1600
L 991 1600
L 991 1575
Q 991 903 1244 561
Q 1497 219 1991 219
Q 2369 219 2611 417
Q 2853 616 2950 1006
L 3413 1006
Q 3275 459 2904 184
Q 2534 -91 1931 -91
Q 1203 -91 761 389
Q 319 869 319 1663
Q 319 2450 753 2931
Q 1188 3413 1894 3413
Q 2647 3413 3050 2948
Q 3453 2484 3469 1600
z
M 2791 1931
Q 2772 2513 2545 2808
Q 2319 3103 1894 3103
Q 1497 3103 1269 2806
Q 1041 2509 991 1931
L 2791 1931
z
" transform="scale(0.015625)"/>
       <path id="DejaVuSerif-43" d="M 4513 1234
Q 4306 581 3820 245
Q 3334 -91 2591 -91
Q 2134 -91 1743 65
Q 1353 222 1050 525
Q 700 875 529 1320
Q 359 1766 359 2328
Q 359 3416 987 4083
Q 1616 4750 2644 4750
Q 3025 4750 3456 4650
Q 3888 4550 4384 4347
L 4384 3272
L 4031 3272
Q 3916 3859 3567 4137
Q 3219 4416 2591 4416
Q 1844 4416 1459 3886
Q 1075 3356 1075 2328
Q 1075 1303 1459 773
Q 1844 244 2591 244
Q 3113 244 3450 492
Q 3788 741 3938 1234
L 4513 1234
z
" transform="scale(0.015625)"/>
       <path id="DejaVuSerif-75" d="M 2266 3322
L 3341 3322
L 3341 331
L 3884 331
L 3884 0
L 2766 0
L 2766 588
Q 2606 256 2353 82
Q 2100 -91 1766 -91
Q 1213 -91 952 223
Q 691 538 691 1209
L 691 2988
L 172 2988
L 172 3322
L 1269 3322
L 1269 1388
Q 1269 781 1417 556
Q 1566 331 1947 331
Q 2347 331 2556 625
Q 2766 919 2766 1478
L 2766 2988
L 2266 2988
L 2266 3322
z
" transform="scale(0.015625)"/>
       <path id="DejaVuSerif-28" d="M 2041 -997
Q 1281 -656 893 83
Q 506 822 506 1931
Q 506 3044 893 3783
Q 1281 4522 2041 4863
L 2041 4556
Q 1559 4225 1350 3623
Q 1141 3022 1141 1931
Q 1141 844 1350 242
Q 1559 -359 2041 -691
L 2041 -997
z
" transform="scale(0.015625)"/>
       <path id="DejaVuSerif-4d" d="M 353 0
L 353 331
L 947 331
L 947 4331
L 319 4331
L 319 4666
L 1678 4666
L 3316 1344
L 4953 4666
L 6228 4666
L 6228 4331
L 5606 4331
L 5606 331
L 6203 331
L 6203 0
L 4378 0
L 4378 331
L 4972 331
L 4972 3938
L 3372 684
L 2931 684
L 1331 3938
L 1331 331
L 1925 331
L 1925 0
L 353 0
z
" transform="scale(0.015625)"/>
       <path id="DejaVuSerif-58" d="M 2119 1997
L 978 331
L 1581 331
L 1581 0
L 38 0
L 38 331
L 575 331
L 1919 2291
L 556 4331
L 56 4331
L 56 4666
L 1906 4666
L 1906 4331
L 1356 4331
L 2356 2828
L 3384 4331
L 2784 4331
L 2784 4666
L 4313 4666
L 4313 4331
L 3788 4331
L 2553 2534
L 4025 331
L 4525 331
L 4525 0
L 2675 0
L 2675 331
L 3231 331
L 2119 1997
z
" transform="scale(0.015625)"/>
       <path id="DejaVuSerif-5f" d="M 3200 -1259
L 3200 -1509
L 0 -1509
L 0 -1259
L 3200 -1259
z
" transform="scale(0.015625)"/>
       <path id="DejaVuSerif-4e" d="M 313 0
L 313 331
L 941 331
L 941 4331
L 313 4331
L 313 4666
L 1509 4666
L 4306 984
L 4306 4331
L 3681 4331
L 3681 4666
L 5319 4666
L 5319 4331
L 4691 4331
L 4691 -91
L 4313 -91
L 1325 3841
L 1325 331
L 1953 331
L 1953 0
L 313 0
z
" transform="scale(0.015625)"/>
       <path id="DejaVuSerif-45" d="M 353 0
L 353 331
L 947 331
L 947 4331
L 353 4331
L 353 4666
L 4109 4666
L 4109 3628
L 3725 3628
L 3725 4281
L 1581 4281
L 1581 2719
L 3109 2719
L 3109 3303
L 3494 3303
L 3494 1753
L 3109 1753
L 3109 2338
L 1581 2338
L 1581 384
L 3775 384
L 3775 1038
L 4159 1038
L 4159 0
L 353 0
z
" transform="scale(0.015625)"/>
       <path id="DejaVuSerif-57" d="M 4878 0
L 4366 0
L 3297 3794
L 2228 0
L 1716 0
L 494 4331
L 31 4331
L 31 4666
L 1734 4666
L 1734 4331
L 1153 4331
L 2125 884
L 3188 4666
L 3694 4666
L 4775 844
L 5753 4331
L 5216 4331
L 5216 4666
L 6559 4666
L 6559 4331
L 6100 4331
L 4878 0
z
" transform="scale(0.015625)"/>
       <path id="DejaVuSerif-4f" d="M 2625 244
Q 3391 244 3781 770
Q 4172 1297 4172 2328
Q 4172 3363 3781 3889
Q 3391 4416 2625 4416
Q 1856 4416 1465 3889
Q 1075 3363 1075 2328
Q 1075 1297 1465 770
Q 1856 244 2625 244
z
M 2625 -91
Q 2150 -91 1751 65
Q 1353 222 1050 525
Q 700 875 529 1319
Q 359 1763 359 2328
Q 359 2894 529 3339
Q 700 3784 1050 4134
Q 1356 4441 1750 4595
Q 2144 4750 2625 4750
Q 3641 4750 4266 4084
Q 4891 3419 4891 2328
Q 4891 1769 4719 1320
Q 4547 872 4197 525
Q 3891 219 3497 64
Q 3103 -91 2625 -91
z
" transform="scale(0.015625)"/>
       <path id="DejaVuSerif-4b" d="M 353 0
L 353 331
L 947 331
L 947 4331
L 353 4331
L 353 4666
L 2175 4666
L 2175 4331
L 1581 4331
L 1581 2566
L 3591 4331
L 3084 4331
L 3084 4666
L 4634 4666
L 4634 4331
L 4109 4331
L 2106 2572
L 4347 331
L 4878 331
L 4878 0
L 3794 0
L 1581 2216
L 1581 331
L 2175 331
L 2175 0
L 353 0
z
" transform="scale(0.015625)"/>
       <path id="DejaVuSerif-53" d="M 594 225
L 594 1288
L 953 1284
Q 969 753 1261 498
Q 1553 244 2150 244
Q 2706 244 2998 464
Q 3291 684 3291 1106
Q 3291 1444 3114 1625
Q 2938 1806 2369 1978
L 1753 2163
Q 1084 2366 811 2669
Q 538 2972 538 3500
Q 538 4094 959 4422
Q 1381 4750 2144 4750
Q 2469 4750 2856 4679
Q 3244 4609 3681 4475
L 3681 3481
L 3328 3481
Q 3275 3975 2998 4195
Q 2722 4416 2156 4416
Q 1663 4416 1405 4214
Q 1147 4013 1147 3628
Q 1147 3294 1340 3103
Q 1534 2913 2163 2725
L 2741 2553
Q 3375 2363 3645 2067
Q 3916 1772 3916 1275
Q 3916 597 3481 253
Q 3047 -91 2188 -91
Q 1803 -91 1404 -12
Q 1006 66 594 225
z
" transform="scale(0.015625)"/>
       <path id="DejaVuSerif-29" d="M 453 -997
L 453 -691
Q 934 -359 1145 242
Q 1356 844 1356 1931
Q 1356 3022 1145 3623
Q 934 4225 453 4556
L 453 4863
Q 1216 4522 1603 3783
Q 1991 3044 1991 1931
Q 1991 822 1603 83
Q 1216 -656 453 -997
z
" transform="scale(0.015625)"/>
      </defs>
      <use xlink:href="#DejaVuSerif-41"/>
      <use xlink:href="#DejaVuSerif-73" transform="translate(72.216797 0)"/>
      <use xlink:href="#DejaVuSerif-73" transform="translate(123.535156 0)"/>
      <use xlink:href="#DejaVuSerif-69" transform="translate(174.853516 0)"/>
      <use xlink:href="#DejaVuSerif-73" transform="translate(206.835938 0)"/>
      <use xlink:href="#DejaVuSerif-74" transform="translate(258.154297 0)"/>
      <use xlink:href="#DejaVuSerif-61" transform="translate(298.339844 0)"/>
      <use xlink:href="#DejaVuSerif-6e" transform="translate(357.958984 0)"/>
      <use xlink:href="#DejaVuSerif-74" transform="translate(422.363281 0)"/>
      <use xlink:href="#DejaVuSerif-20" transform="translate(462.548828 0)"/>
      <use xlink:href="#DejaVuSerif-54" transform="translate(494.335938 0)"/>
      <use xlink:href="#DejaVuSerif-6f" transform="translate(553.285156 0)"/>
      <use xlink:href="#DejaVuSerif-6b" transform="translate(613.490234 0)"/>
      <use xlink:href="#DejaVuSerif-65" transform="translate(674.085938 0)"/>
      <use xlink:href="#DejaVuSerif-6e" transform="translate(733.265625 0)"/>
      <use xlink:href="#DejaVuSerif-20" transform="translate(797.669922 0)"/>
      <use xlink:href="#DejaVuSerif-43" transform="translate(829.457031 0)"/>
      <use xlink:href="#DejaVuSerif-6f" transform="translate(905.970703 0)"/>
      <use xlink:href="#DejaVuSerif-75" transform="translate(966.175781 0)"/>
      <use xlink:href="#DejaVuSerif-6e" transform="translate(1030.580078 0)"/>
      <use xlink:href="#DejaVuSerif-74" transform="translate(1094.984375 0)"/>
      <use xlink:href="#DejaVuSerif-20" transform="translate(1135.169922 0)"/>
      <use xlink:href="#DejaVuSerif-28" transform="translate(1166.957031 0)"/>
      <use xlink:href="#DejaVuSerif-4d" transform="translate(1205.970703 0)"/>
      <use xlink:href="#DejaVuSerif-41" transform="translate(1308.363281 0)"/>
      <use xlink:href="#DejaVuSerif-58" transform="translate(1380.580078 0)"/>
      <use xlink:href="#DejaVuSerif-5f" transform="translate(1451.771484 0)"/>
      <use xlink:href="#DejaVuSerif-4e" transform="translate(1501.771484 0)"/>
      <use xlink:href="#DejaVuSerif-45" transform="translate(1589.271484 0)"/>
      <use xlink:href="#DejaVuSerif-57" transform="translate(1662.269531 0)"/>
      <use xlink:href="#DejaVuSerif-5f" transform="translate(1765.052734 0)"/>
      <use xlink:href="#DejaVuSerif-54" transform="translate(1815.052734 0)"/>
      <use xlink:href="#DejaVuSerif-4f" transform="translate(1881.751953 0)"/>
      <use xlink:href="#DejaVuSerif-4b" transform="translate(1963.734375 0)"/>
      <use xlink:href="#DejaVuSerif-45" transform="translate(2038.441406 0)"/>
      <use xlink:href="#DejaVuSerif-4e" transform="translate(2111.439453 0)"/>
      <use xlink:href="#DejaVuSerif-53" transform="translate(2198.939453 0)"/>
      <use xlink:href="#DejaVuSerif-29" transform="translate(2267.445312 0)"/>
     </g>
    </g>
   </g>
   <g id="matplotlib.axis_2">
    <g id="ytick_1">
     <g id="line2d_7">
      <path d="M 52.71875 234.357812
L 412.60875 234.357812
" clip-path="url(#p42c948fbaf)" style="fill: none; stroke-dasharray: 2.96,1.28; stroke-dashoffset: 0; stroke: #b0b0b0; stroke-opacity: 0.5; stroke-width: 0.8"/>
     </g>
     <g id="line2d_8">
      <defs>
       <path id="m94bc8ec6dd" d="M 0 0
L -3.5 0
" style="stroke: #000000; stroke-width: 0.8"/>
      </defs>
      <g>
       <use xlink:href="#m94bc8ec6dd" x="52.71875" y="234.357812" style="stroke: #000000; stroke-width: 0.8"/>
      </g>
     </g>
     <g id="text_8">
      <!-- 0 -->
      <g transform="translate(38.08375 238.916875) scale(0.12 -0.12)">
       <use xlink:href="#DejaVuSerif-30"/>
      </g>
     </g>
    </g>
    <g id="ytick_2">
     <g id="line2d_9">
      <path d="M 52.71875 190.58156
L 412.60875 190.58156
" clip-path="url(#p42c948fbaf)" style="fill: none; stroke-dasharray: 2.96,1.28; stroke-dashoffset: 0; stroke: #b0b0b0; stroke-opacity: 0.5; stroke-width: 0.8"/>
     </g>
     <g id="line2d_10">
      <g>
       <use xlink:href="#m94bc8ec6dd" x="52.71875" y="190.58156" style="stroke: #000000; stroke-width: 0.8"/>
      </g>
     </g>
     <g id="text_9">
      <!-- 50 -->
      <g transform="translate(30.44875 195.140622) scale(0.12 -0.12)">
       <use xlink:href="#DejaVuSerif-35"/>
       <use xlink:href="#DejaVuSerif-30" transform="translate(63.623047 0)"/>
      </g>
     </g>
    </g>
    <g id="ytick_3">
     <g id="line2d_11">
      <path d="M 52.71875 146.805307
L 412.60875 146.805307
" clip-path="url(#p42c948fbaf)" style="fill: none; stroke-dasharray: 2.96,1.28; stroke-dashoffset: 0; stroke: #b0b0b0; stroke-opacity: 0.5; stroke-width: 0.8"/>
     </g>
     <g id="line2d_12">
      <g>
       <use xlink:href="#m94bc8ec6dd" x="52.71875" y="146.805307" style="stroke: #000000; stroke-width: 0.8"/>
      </g>
     </g>
     <g id="text_10">
      <!-- 100 -->
      <g transform="translate(22.81375 151.364369) scale(0.12 -0.12)">
       <use xlink:href="#DejaVuSerif-31"/>
       <use xlink:href="#DejaVuSerif-30" transform="translate(63.623047 0)"/>
       <use xlink:href="#DejaVuSerif-30" transform="translate(127.246094 0)"/>
      </g>
     </g>
    </g>
    <g id="ytick_4">
     <g id="line2d_13">
      <path d="M 52.71875 103.029054
L 412.60875 103.029054
" clip-path="url(#p42c948fbaf)" style="fill: none; stroke-dasharray: 2.96,1.28; stroke-dashoffset: 0; stroke: #b0b0b0; stroke-opacity: 0.5; stroke-width: 0.8"/>
     </g>
     <g id="line2d_14">
      <g>
       <use xlink:href="#m94bc8ec6dd" x="52.71875" y="103.029054" style="stroke: #000000; stroke-width: 0.8"/>
      </g>
     </g>
     <g id="text_11">
      <!-- 150 -->
      <g transform="translate(22.81375 107.588116) scale(0.12 -0.12)">
       <use xlink:href="#DejaVuSerif-31"/>
       <use xlink:href="#DejaVuSerif-35" transform="translate(63.623047 0)"/>
       <use xlink:href="#DejaVuSerif-30" transform="translate(127.246094 0)"/>
      </g>
     </g>
    </g>
    <g id="ytick_5">
     <g id="line2d_15">
      <path d="M 52.71875 59.252801
L 412.60875 59.252801
" clip-path="url(#p42c948fbaf)" style="fill: none; stroke-dasharray: 2.96,1.28; stroke-dashoffset: 0; stroke: #b0b0b0; stroke-opacity: 0.5; stroke-width: 0.8"/>
     </g>
     <g id="line2d_16">
      <g>
       <use xlink:href="#m94bc8ec6dd" x="52.71875" y="59.252801" style="stroke: #000000; stroke-width: 0.8"/>
      </g>
     </g>
     <g id="text_12">
      <!-- 200 -->
      <g transform="translate(22.81375 63.811864) scale(0.12 -0.12)">
       <use xlink:href="#DejaVuSerif-32"/>
       <use xlink:href="#DejaVuSerif-30" transform="translate(63.623047 0)"/>
       <use xlink:href="#DejaVuSerif-30" transform="translate(127.246094 0)"/>
      </g>
     </g>
    </g>
    <g id="text_13">
     <!-- Frequency -->
     <g transform="translate(16.1475 161.55125) rotate(-90) scale(0.12 -0.12)">
      <defs>
       <path id="DejaVuSerif-46" d="M 353 0
L 353 331
L 947 331
L 947 4331
L 353 4331
L 353 4666
L 4172 4666
L 4172 3628
L 3788 3628
L 3788 4281
L 1581 4281
L 1581 2719
L 3175 2719
L 3175 3303
L 3559 3303
L 3559 1753
L 3175 1753
L 3175 2338
L 1581 2338
L 1581 331
L 2328 331
L 2328 0
L 353 0
z
" transform="scale(0.015625)"/>
       <path id="DejaVuSerif-72" d="M 3059 3328
L 3059 2497
L 2728 2497
Q 2713 2744 2591 2866
Q 2469 2988 2234 2988
Q 1809 2988 1582 2694
Q 1356 2400 1356 1850
L 1356 331
L 2022 331
L 2022 0
L 263 0
L 263 331
L 781 331
L 781 2994
L 231 2994
L 231 3322
L 1356 3322
L 1356 2731
Q 1525 3078 1790 3245
Q 2056 3413 2438 3413
Q 2578 3413 2733 3391
Q 2888 3369 3059 3328
z
" transform="scale(0.015625)"/>
       <path id="DejaVuSerif-71" d="M 3359 2988
L 3359 -997
L 3909 -997
L 3909 -1331
L 2241 -1331
L 2241 -997
L 2784 -997
L 2784 519
Q 2616 206 2355 57
Q 2094 -91 1709 -91
Q 1097 -91 708 395
Q 319 881 319 1663
Q 319 2444 706 2928
Q 1094 3413 1709 3413
Q 2094 3413 2355 3264
Q 2616 3116 2784 2803
L 2784 3322
L 3909 3322
L 3909 2988
L 3359 2988
z
M 2784 1825
Q 2784 2422 2554 2737
Q 2325 3053 1888 3053
Q 1444 3053 1217 2703
Q 991 2353 991 1663
Q 991 975 1217 622
Q 1444 269 1888 269
Q 2325 269 2554 583
Q 2784 897 2784 1497
L 2784 1825
z
" transform="scale(0.015625)"/>
       <path id="DejaVuSerif-63" d="M 3291 997
Q 3169 466 2822 187
Q 2475 -91 1925 -91
Q 1200 -91 759 389
Q 319 869 319 1663
Q 319 2459 759 2936
Q 1200 3413 1925 3413
Q 2241 3413 2553 3339
Q 2866 3266 3181 3116
L 3181 2266
L 2847 2266
Q 2781 2703 2561 2903
Q 2341 3103 1931 3103
Q 1466 3103 1228 2742
Q 991 2381 991 1663
Q 991 944 1227 581
Q 1463 219 1931 219
Q 2303 219 2525 412
Q 2747 606 2828 997
L 3291 997
z
" transform="scale(0.015625)"/>
       <path id="DejaVuSerif-79" d="M 1381 -609
L 1600 -56
L 359 2988
L -19 2988
L -19 3322
L 1509 3322
L 1509 2988
L 978 2988
L 1913 703
L 2847 2988
L 2350 2988
L 2350 3322
L 3597 3322
L 3597 2988
L 3225 2988
L 1703 -750
Q 1547 -1138 1356 -1280
Q 1166 -1422 819 -1422
Q 672 -1422 517 -1397
Q 363 -1372 206 -1325
L 206 -691
L 500 -691
Q 519 -903 608 -995
Q 697 -1088 884 -1088
Q 1056 -1088 1161 -992
Q 1266 -897 1381 -609
z
" transform="scale(0.015625)"/>
      </defs>
      <use xlink:href="#DejaVuSerif-46"/>
      <use xlink:href="#DejaVuSerif-72" transform="translate(69.384766 0)"/>
      <use xlink:href="#DejaVuSerif-65" transform="translate(117.1875 0)"/>
      <use xlink:href="#DejaVuSerif-71" transform="translate(176.367188 0)"/>
      <use xlink:href="#DejaVuSerif-75" transform="translate(240.380859 0)"/>
      <use xlink:href="#DejaVuSerif-65" transform="translate(304.785156 0)"/>
      <use xlink:href="#DejaVuSerif-6e" transform="translate(363.964844 0)"/>
      <use xlink:href="#DejaVuSerif-63" transform="translate(428.369141 0)"/>
      <use xlink:href="#DejaVuSerif-79" transform="translate(484.375 0)"/>
     </g>
    </g>
   </g>
   <g id="patch_33">
    <path d="M 52.71875 234.357812
L 52.71875 23.837813
" style="fill: none; stroke: #000000; stroke-width: 0.8; stroke-linejoin: miter; stroke-linecap: square"/>
   </g>
   <g id="patch_34">
    <path d="M 52.71875 234.357812
L 412.60875 234.357812
" style="fill: none; stroke: #000000; stroke-width: 0.8; stroke-linejoin: miter; stroke-linecap: square"/>
   </g>
   <g id="text_14">
    <!-- Distribution of Assistant Tokens -->
    <g transform="translate(119.375312 17.837812) scale(0.14 -0.14)">
     <defs>
      <path id="DejaVuSerif-44" d="M 1581 331
L 2163 331
Q 3072 331 3558 850
Q 4044 1369 4044 2338
Q 4044 3306 3559 3818
Q 3075 4331 2163 4331
L 1581 4331
L 1581 331
z
M 353 0
L 353 331
L 947 331
L 947 4331
L 353 4331
L 353 4666
L 2209 4666
Q 3416 4666 4089 4050
Q 4763 3434 4763 2338
Q 4763 1238 4088 619
Q 3413 0 2209 0
L 353 0
z
" transform="scale(0.015625)"/>
      <path id="DejaVuSerif-62" d="M 738 331
L 738 4531
L 184 4531
L 184 4863
L 1313 4863
L 1313 2803
Q 1481 3116 1742 3264
Q 2003 3413 2388 3413
Q 3000 3413 3387 2928
Q 3775 2444 3775 1663
Q 3775 881 3387 395
Q 3000 -91 2388 -91
Q 2003 -91 1742 57
Q 1481 206 1313 519
L 1313 0
L 184 0
L 184 331
L 738 331
z
M 1313 1497
Q 1313 897 1542 583
Q 1772 269 2209 269
Q 2650 269 2876 622
Q 3103 975 3103 1663
Q 3103 2353 2876 2703
Q 2650 3053 2209 3053
Q 1772 3053 1542 2737
Q 1313 2422 1313 1825
L 1313 1497
z
" transform="scale(0.015625)"/>
      <path id="DejaVuSerif-66" d="M 2753 4078
L 2450 4078
Q 2447 4313 2317 4434
Q 2188 4556 1941 4556
Q 1619 4556 1487 4379
Q 1356 4203 1356 3750
L 1356 3322
L 2284 3322
L 2284 2988
L 1356 2988
L 1356 331
L 2094 331
L 2094 0
L 231 0
L 231 331
L 781 331
L 781 2988
L 231 2988
L 231 3322
L 781 3322
L 781 3738
Q 781 4294 1070 4578
Q 1359 4863 1919 4863
Q 2128 4863 2337 4825
Q 2547 4788 2753 4709
L 2753 4078
z
" transform="scale(0.015625)"/>
     </defs>
     <use xlink:href="#DejaVuSerif-44"/>
     <use xlink:href="#DejaVuSerif-69" transform="translate(80.175781 0)"/>
     <use xlink:href="#DejaVuSerif-73" transform="translate(112.158203 0)"/>
     <use xlink:href="#DejaVuSerif-74" transform="translate(163.476562 0)"/>
     <use xlink:href="#DejaVuSerif-72" transform="translate(203.662109 0)"/>
     <use xlink:href="#DejaVuSerif-69" transform="translate(251.464844 0)"/>
     <use xlink:href="#DejaVuSerif-62" transform="translate(283.447266 0)"/>
     <use xlink:href="#DejaVuSerif-75" transform="translate(347.460938 0)"/>
     <use xlink:href="#DejaVuSerif-74" transform="translate(411.865234 0)"/>
     <use xlink:href="#DejaVuSerif-69" transform="translate(452.050781 0)"/>
     <use xlink:href="#DejaVuSerif-6f" transform="translate(484.033203 0)"/>
     <use xlink:href="#DejaVuSerif-6e" transform="translate(544.238281 0)"/>
     <use xlink:href="#DejaVuSerif-20" transform="translate(608.642578 0)"/>
     <use xlink:href="#DejaVuSerif-6f" transform="translate(640.429688 0)"/>
     <use xlink:href="#DejaVuSerif-66" transform="translate(700.634766 0)"/>
     <use xlink:href="#DejaVuSerif-20" transform="translate(737.646484 0)"/>
     <use xlink:href="#DejaVuSerif-41" transform="translate(769.433594 0)"/>
     <use xlink:href="#DejaVuSerif-73" transform="translate(841.650391 0)"/>
     <use xlink:href="#DejaVuSerif-73" transform="translate(892.96875 0)"/>
     <use xlink:href="#DejaVuSerif-69" transform="translate(944.287109 0)"/>
     <use xlink:href="#DejaVuSerif-73" transform="translate(976.269531 0)"/>
     <use xlink:href="#DejaVuSerif-74" transform="translate(1027.587891 0)"/>
     <use xlink:href="#DejaVuSerif-61" transform="translate(1067.773438 0)"/>
     <use xlink:href="#DejaVuSerif-6e" transform="translate(1127.392578 0)"/>
     <use xlink:href="#DejaVuSerif-74" transform="translate(1191.796875 0)"/>
     <use xlink:href="#DejaVuSerif-20" transform="translate(1231.982422 0)"/>
     <use xlink:href="#DejaVuSerif-54" transform="translate(1263.769531 0)"/>
     <use xlink:href="#DejaVuSerif-6f" transform="translate(1322.71875 0)"/>
     <use xlink:href="#DejaVuSerif-6b" transform="translate(1382.923828 0)"/>
     <use xlink:href="#DejaVuSerif-65" transform="translate(1443.519531 0)"/>
     <use xlink:href="#DejaVuSerif-6e" transform="translate(1502.699219 0)"/>
     <use xlink:href="#DejaVuSerif-73" transform="translate(1567.103516 0)"/>
    </g>
   </g>
  </g>
 </g>
 <defs>
  <clipPath id="p42c948fbaf">
   <rect x="52.71875" y="23.837813" width="359.89" height="210.52"/>
  </clipPath>
 </defs>
</svg>
